<svg width="71" height="361" viewBox="0 0 71 361" fill="none" xmlns="http://www.w3.org/2000/svg">
<g filter="url(#filter0_d_1854_19320)">
<path d="M0 3H30C46.5685 3 60 16.4315 60 33V320C60 336.569 46.5685 350 30 350H0V3Z" fill="white"/>
<rect x="22" y="37" width="16" height="16" rx="1" stroke="black" stroke-width="2"/>
<path d="M27.7142 37V53" stroke="black" stroke-width="2"/>
<path d="M33.4285 47.2857L31.4964 45.3535C31.3011 45.1583 31.3011 44.8417 31.4964 44.6464L33.4285 42.7143" stroke="black" stroke-width="2" stroke-linecap="round"/>
<path d="M37.14 317.68C37.14 317.947 37.0733 318.16 36.94 318.32C36.8067 318.48 36.5933 318.613 36.3 318.72L23.86 323.08C23.5533 323.2 23.2933 323.187 23.08 323.04C22.8667 322.88 22.76 322.62 22.76 322.26C22.76 322.007 22.82 321.807 22.94 321.66C23.06 321.513 23.26 321.393 23.54 321.3L35.34 317.28L35.34 318L23.58 313.88C23.3 313.773 23.0933 313.647 22.96 313.5C22.8267 313.353 22.76 313.16 22.76 312.92C22.76 312.667 22.8267 312.473 22.96 312.34C23.0933 312.193 23.3067 312.073 23.6 311.98L35.34 307.94L35.34 308.58L23.54 304.52C23.2733 304.427 23.08 304.307 22.96 304.16C22.8267 304.013 22.76 303.807 22.76 303.54C22.76 303.233 22.8667 303.007 23.08 302.86C23.2933 302.713 23.5533 302.693 23.86 302.8L36.32 307.2C36.6 307.293 36.8067 307.42 36.94 307.58C37.0733 307.74 37.14 307.953 37.14 308.22C37.14 308.5 37.0733 308.72 36.94 308.88C36.8067 309.04 36.5933 309.173 36.3 309.28L25.1 313.18L25.1 312.74L36.32 316.66C36.6 316.767 36.8067 316.9 36.94 317.06C37.0733 317.207 37.14 317.413 37.14 317.68ZM37.18 297.502C37.18 298.462 36.9733 299.295 36.56 300.002C36.1467 300.708 35.56 301.255 34.8 301.642C34.04 302.028 33.1467 302.222 32.12 302.222C31.3467 302.222 30.6533 302.115 30.04 301.902C29.4133 301.675 28.88 301.355 28.44 300.942C28 300.528 27.6667 300.035 27.44 299.462C27.2 298.875 27.08 298.222 27.08 297.502C27.08 296.542 27.2867 295.708 27.7 295.002C28.1133 294.295 28.7 293.748 29.46 293.362C30.2067 292.975 31.0933 292.782 32.12 292.782C32.8933 292.782 33.5933 292.895 34.22 293.122C34.8467 293.335 35.38 293.648 35.82 294.062C36.26 294.475 36.6 294.975 36.84 295.562C37.0667 296.135 37.18 296.782 37.18 297.502ZM35.74 297.502C35.74 296.915 35.6 296.408 35.32 295.982C35.04 295.542 34.6333 295.208 34.1 294.982C33.5667 294.742 32.9067 294.622 32.12 294.622C30.9467 294.622 30.0533 294.882 29.44 295.402C28.8267 295.922 28.52 296.622 28.52 297.502C28.52 298.075 28.66 298.582 28.94 299.022C29.2067 299.448 29.6067 299.782 30.14 300.022C30.6733 300.262 31.3333 300.382 32.12 300.382C33.2933 300.382 34.1933 300.122 34.82 299.602C35.4333 299.068 35.74 298.368 35.74 297.502ZM37.14 289.51C37.14 289.817 37.06 290.05 36.9 290.21C36.74 290.37 36.5067 290.45 36.2 290.45L28.04 290.45C27.7333 290.45 27.5067 290.37 27.36 290.21C27.2 290.05 27.12 289.83 27.12 289.55C27.12 289.27 27.2 289.057 27.36 288.91C27.5067 288.75 27.7333 288.67 28.04 288.67L29.58 288.67L29.58 288.87C28.78 288.657 28.1733 288.257 27.76 287.67C27.3467 287.083 27.1133 286.343 27.06 285.45C27.0467 285.237 27.1 285.063 27.22 284.93C27.3267 284.797 27.5133 284.723 27.78 284.71C28.0333 284.697 28.24 284.757 28.4 284.89C28.5467 285.023 28.6333 285.23 28.66 285.51L28.68 285.87C28.7733 286.75 29.06 287.43 29.54 287.91C30.02 288.377 30.68 288.61 31.52 288.61L36.2 288.61C36.5067 288.61 36.74 288.69 36.9 288.85C37.06 288.997 37.14 289.217 37.14 289.51ZM37.14 282.245C37.14 282.525 37.06 282.745 36.9 282.905C36.74 283.065 36.5067 283.145 36.2 283.145L23.68 283.145C23.3733 283.145 23.1467 283.065 23 282.905C22.84 282.745 22.76 282.525 22.76 282.245C22.76 281.952 22.84 281.725 23 281.565C23.1467 281.405 23.3733 281.325 23.68 281.325L31.56 281.325L31.56 281.285L27.74 277.365C27.54 277.165 27.3867 276.985 27.28 276.825C27.1733 276.665 27.12 276.459 27.12 276.205C27.12 275.952 27.1867 275.759 27.32 275.625C27.44 275.492 27.6 275.425 27.8 275.425C27.9867 275.425 28.1733 275.519 28.36 275.705L32.4 279.865L31.5 279.865L35.88 275.325C36.0667 275.139 36.26 275.052 36.46 275.065C36.66 275.065 36.8267 275.139 36.96 275.285C37.08 275.419 37.14 275.599 37.14 275.825C37.14 276.092 37.0867 276.312 36.98 276.485C36.8733 276.645 36.7067 276.832 36.48 277.045L32.48 281.285L32.48 281.325L36.2 281.325C36.8267 281.325 37.14 281.632 37.14 282.245ZM37.18 269.805C37.18 270.405 37.1133 271.012 36.98 271.625C36.8333 272.225 36.5867 272.792 36.24 273.325C36.1467 273.472 36.0333 273.578 35.9 273.645C35.7533 273.698 35.6133 273.718 35.48 273.705C35.3333 273.678 35.2067 273.618 35.1 273.525C34.9933 273.432 34.9333 273.318 34.92 273.185C34.8933 273.038 34.9267 272.885 35.02 272.725C35.3133 272.205 35.52 271.705 35.64 271.225C35.76 270.732 35.82 270.245 35.82 269.765C35.82 269.032 35.6867 268.478 35.42 268.105C35.1533 267.732 34.8 267.545 34.36 267.545C33.9867 267.545 33.7 267.672 33.5 267.925C33.2867 268.165 33.1267 268.545 33.02 269.065L32.64 270.925C32.4533 271.752 32.1467 272.378 31.72 272.805C31.28 273.218 30.72 273.425 30.04 273.425C29.44 273.425 28.92 273.265 28.48 272.945C28.0267 272.612 27.68 272.152 27.44 271.565C27.2 270.978 27.08 270.305 27.08 269.545C27.08 268.958 27.16 268.405 27.32 267.885C27.4667 267.352 27.6933 266.872 28 266.445C28.0933 266.285 28.2133 266.185 28.36 266.145C28.4933 266.092 28.6333 266.085 28.78 266.125C28.9133 266.152 29.0267 266.212 29.12 266.305C29.2133 266.398 29.2733 266.518 29.3 266.665C29.3133 266.812 29.2733 266.972 29.18 267.145C28.9133 267.532 28.7267 267.932 28.62 268.345C28.5 268.745 28.44 269.145 28.44 269.545C28.44 270.265 28.58 270.812 28.86 271.185C29.14 271.545 29.5067 271.725 29.96 271.725C30.3067 271.725 30.5933 271.618 30.82 271.405C31.0467 271.178 31.2133 270.825 31.32 270.345L31.7 268.485C31.8867 267.618 32.1867 266.965 32.6 266.525C33 266.085 33.5467 265.865 34.24 265.865C35.1467 265.865 35.8667 266.225 36.4 266.945C36.92 267.652 37.18 268.605 37.18 269.805ZM40.74 262.597C40.74 262.877 40.66 263.097 40.5 263.257C40.34 263.417 40.1133 263.497 39.82 263.497L28.04 263.497C27.7333 263.497 27.5067 263.417 27.36 263.257C27.2 263.097 27.12 262.877 27.12 262.597C27.12 262.304 27.2 262.084 27.36 261.937C27.5067 261.777 27.7333 261.697 28.04 261.697L29.86 261.697L29.5 261.917C28.7667 261.704 28.18 261.284 27.74 260.657C27.3 260.03 27.08 259.277 27.08 258.397C27.08 257.53 27.2867 256.777 27.7 256.137C28.1 255.497 28.68 254.997 29.44 254.637C30.1867 254.277 31.08 254.097 32.12 254.097C33.1467 254.097 34.0467 254.277 34.82 254.637C35.58 254.984 36.1667 255.484 36.58 256.137C36.98 256.777 37.18 257.53 37.18 258.397C37.18 259.264 36.96 260.01 36.52 260.637C36.08 261.264 35.5 261.684 34.78 261.897L34.78 261.677L39.82 261.677C40.1133 261.677 40.34 261.757 40.5 261.917C40.66 262.077 40.74 262.304 40.74 262.597ZM35.74 258.817C35.74 258.244 35.6 257.744 35.32 257.317C35.04 256.877 34.6333 256.537 34.1 256.297C33.5667 256.057 32.9067 255.937 32.12 255.937C30.9467 255.937 30.0533 256.197 29.44 256.717C28.8267 257.237 28.52 257.937 28.52 258.817C28.52 259.404 28.66 259.917 28.94 260.357C29.2067 260.784 29.6067 261.117 30.14 261.357C30.6733 261.584 31.3333 261.697 32.12 261.697C33.2933 261.697 34.1933 261.437 34.82 260.917C35.4333 260.397 35.74 259.697 35.74 258.817ZM37.18 248.659C37.18 249.325 37.0467 249.932 36.78 250.479C36.5133 251.012 36.1533 251.432 35.7 251.739C35.2467 252.032 34.74 252.179 34.18 252.179C33.46 252.179 32.8933 251.999 32.48 251.639C32.0667 251.279 31.7733 250.672 31.6 249.819C31.4133 248.965 31.32 247.819 31.32 246.379L31.32 245.439L32.48 245.439L32.48 246.339C32.48 247.365 32.5267 248.179 32.62 248.779C32.7133 249.365 32.88 249.779 33.12 250.019C33.3467 250.259 33.6667 250.379 34.08 250.379C34.6 250.379 35.0267 250.199 35.36 249.839C35.6933 249.465 35.86 248.959 35.86 248.319C35.86 247.812 35.74 247.365 35.5 246.979C35.2467 246.592 34.9133 246.285 34.5 246.059C34.0733 245.832 33.5867 245.719 33.04 245.719L30.74 245.719C29.9533 245.719 29.3867 245.879 29.04 246.199C28.68 246.519 28.5 247.059 28.5 247.819C28.5 248.259 28.56 248.712 28.68 249.179C28.8 249.645 28.9867 250.132 29.24 250.639C29.3333 250.839 29.3667 251.012 29.34 251.159C29.3 251.305 29.22 251.425 29.1 251.519C28.9667 251.599 28.8267 251.645 28.68 251.659C28.52 251.659 28.3667 251.625 28.22 251.559C28.0733 251.479 27.9667 251.345 27.9 251.159C27.6067 250.572 27.4 249.992 27.28 249.419C27.1467 248.832 27.08 248.285 27.08 247.779C27.08 246.912 27.22 246.199 27.5 245.639C27.7667 245.079 28.1867 244.659 28.76 244.379C29.32 244.099 30.04 243.959 30.92 243.959L36.2 243.959C36.5067 243.959 36.74 244.032 36.9 244.179C37.06 244.325 37.14 244.539 37.14 244.819C37.14 245.085 37.06 245.299 36.9 245.459C36.74 245.605 36.5067 245.679 36.2 245.679L34.78 245.679L34.78 245.499C35.2733 245.605 35.7 245.805 36.06 246.099C36.42 246.392 36.7 246.759 36.9 247.199C37.0867 247.625 37.18 248.112 37.18 248.659ZM37.18 236.875C37.18 237.861 36.9733 238.715 36.56 239.435C36.1333 240.155 35.54 240.708 34.78 241.095C34.0067 241.481 33.1 241.675 32.06 241.675C31.2867 241.675 30.5933 241.568 29.98 241.355C29.3667 241.128 28.8467 240.808 28.42 240.395C27.98 239.981 27.6467 239.481 27.42 238.895C27.1933 238.295 27.08 237.621 27.08 236.875C27.08 236.408 27.1533 235.915 27.3 235.395C27.4467 234.875 27.6867 234.395 28.02 233.955C28.1267 233.808 28.2533 233.715 28.4 233.675C28.5333 233.635 28.6733 233.635 28.82 233.675C28.9667 233.701 29.0933 233.768 29.2 233.875C29.2933 233.968 29.3467 234.095 29.36 234.255C29.3733 234.401 29.3267 234.561 29.22 234.735C28.98 235.055 28.8067 235.395 28.7 235.755C28.5933 236.101 28.54 236.435 28.54 236.755C28.54 237.248 28.62 237.688 28.78 238.075C28.94 238.448 29.1733 238.768 29.48 239.035C29.7733 239.288 30.14 239.481 30.58 239.615C31.0067 239.748 31.5067 239.815 32.08 239.815C33.2133 239.815 34.1067 239.548 34.76 239.015C35.4 238.481 35.72 237.728 35.72 236.755C35.72 236.435 35.6733 236.101 35.58 235.755C35.4733 235.408 35.3 235.068 35.06 234.735C34.9533 234.561 34.9133 234.401 34.94 234.255C34.9533 234.108 35.0133 233.988 35.12 233.895C35.2133 233.788 35.3333 233.721 35.48 233.695C35.6133 233.668 35.7533 233.681 35.9 233.735C36.0467 233.775 36.1667 233.868 36.26 234.015C36.58 234.441 36.8133 234.908 36.96 235.415C37.1067 235.921 37.18 236.408 37.18 236.875ZM37.18 227.493C37.18 228.546 36.98 229.453 36.58 230.213C36.1667 230.96 35.5867 231.54 34.84 231.953C34.08 232.366 33.1867 232.573 32.16 232.573C31.1467 232.573 30.26 232.373 29.5 231.973C28.74 231.56 28.1467 231 27.72 230.293C27.2933 229.573 27.08 228.753 27.08 227.833C27.08 227.18 27.1933 226.593 27.42 226.073C27.6333 225.54 27.9467 225.086 28.36 224.713C28.7733 224.34 29.28 224.06 29.88 223.873C30.4667 223.673 31.1333 223.573 31.88 223.573C32.0933 223.573 32.26 223.64 32.38 223.773C32.4867 223.893 32.54 224.073 32.54 224.313L32.54 231.153L31.38 231.153L31.38 224.773L31.66 225.113C30.9667 225.113 30.38 225.22 29.9 225.433C29.4067 225.633 29.0333 225.933 28.78 226.333C28.5267 226.72 28.4 227.206 28.4 227.793C28.4 228.433 28.5533 228.98 28.86 229.433C29.1533 229.886 29.5733 230.233 30.12 230.473C30.6533 230.713 31.2733 230.833 31.98 230.833L32.1 230.833C33.3 230.833 34.2067 230.546 34.82 229.973C35.4333 229.4 35.74 228.573 35.74 227.493C35.74 227.066 35.6867 226.633 35.58 226.193C35.4733 225.74 35.28 225.306 35 224.893C34.88 224.693 34.8267 224.513 34.84 224.353C34.84 224.18 34.8933 224.04 35 223.933C35.0933 223.826 35.2133 223.76 35.36 223.733C35.4933 223.706 35.64 223.726 35.8 223.793C35.96 223.86 36.1 223.986 36.22 224.173C36.5267 224.613 36.7667 225.14 36.94 225.753C37.1 226.353 37.18 226.933 37.18 227.493ZM32.42 220.495C32.42 220.708 32.3467 220.888 32.2 221.035C32.0533 221.182 31.8733 221.255 31.66 221.255C31.4467 221.255 31.2733 221.182 31.14 221.035C30.9933 220.888 30.92 220.708 30.92 220.495L30.92 216.035C30.92 215.835 30.9933 215.662 31.14 215.515C31.2733 215.355 31.4467 215.275 31.66 215.275C31.8733 215.275 32.0533 215.355 32.2 215.515C32.3467 215.662 32.42 215.835 32.42 216.035L32.42 220.495ZM37.14 211.42C37.14 211.687 37.06 211.893 36.9 212.04C36.74 212.187 36.5267 212.26 36.26 212.26L23.64 212.26C23.36 212.26 23.1467 212.187 23 212.04C22.84 211.88 22.76 211.667 22.76 211.4C22.76 211.16 22.8067 210.973 22.9 210.84C22.9933 210.693 23.1533 210.56 23.38 210.44L33.44 205.08L33.44 205.7L23.38 200.34C23.1533 200.22 22.9933 200.093 22.9 199.96C22.8067 199.827 22.76 199.64 22.76 199.4C22.76 199.133 22.84 198.927 23 198.78C23.1467 198.633 23.36 198.56 23.64 198.56L36.26 198.56C36.5267 198.56 36.74 198.633 36.9 198.78C37.06 198.913 37.14 199.12 37.14 199.4C37.14 199.68 37.06 199.893 36.9 200.04C36.74 200.173 36.5267 200.24 36.26 200.24L25.48 200.24L25.48 199.8L34.46 204.6C34.6333 204.707 34.7667 204.82 34.86 204.94C34.94 205.047 34.98 205.2 34.98 205.4C34.98 205.587 34.9333 205.747 34.84 205.88C34.7467 206 34.62 206.107 34.46 206.2L25.46 211.06L25.46 210.58L36.26 210.58C36.5267 210.58 36.74 210.653 36.9 210.8C37.06 210.933 37.14 211.14 37.14 211.42ZM37.18 190.872C37.18 191.925 36.98 192.832 36.58 193.592C36.1667 194.339 35.5867 194.919 34.84 195.332C34.08 195.745 33.1867 195.952 32.16 195.952C31.1467 195.952 30.26 195.752 29.5 195.352C28.74 194.939 28.1467 194.379 27.72 193.672C27.2933 192.952 27.08 192.132 27.08 191.212C27.08 190.559 27.1933 189.972 27.42 189.452C27.6333 188.919 27.9467 188.465 28.36 188.092C28.7733 187.719 29.28 187.439 29.88 187.252C30.4667 187.052 31.1333 186.952 31.88 186.952C32.0933 186.952 32.26 187.019 32.38 187.152C32.4867 187.272 32.54 187.452 32.54 187.692L32.54 194.532L31.38 194.532L31.38 188.152L31.66 188.492C30.9667 188.492 30.38 188.599 29.9 188.812C29.4067 189.012 29.0333 189.312 28.78 189.712C28.5267 190.099 28.4 190.585 28.4 191.172C28.4 191.812 28.5533 192.359 28.86 192.812C29.1533 193.265 29.5733 193.612 30.12 193.852C30.6533 194.092 31.2733 194.212 31.98 194.212L32.1 194.212C33.3 194.212 34.2067 193.925 34.82 193.352C35.4333 192.779 35.74 191.952 35.74 190.872C35.74 190.445 35.6867 190.012 35.58 189.572C35.4733 189.119 35.28 188.685 35 188.272C34.88 188.072 34.8267 187.892 34.84 187.732C34.84 187.559 34.8933 187.419 35 187.312C35.0933 187.205 35.2133 187.139 35.36 187.112C35.4933 187.085 35.64 187.105 35.8 187.172C35.96 187.239 36.1 187.365 36.22 187.552C36.5267 187.992 36.7667 188.519 36.94 189.132C37.1 189.732 37.18 190.312 37.18 190.872ZM37.14 183.788C37.14 184.068 37.06 184.288 36.9 184.448C36.74 184.608 36.5067 184.688 36.2 184.688L28.04 184.688C27.7333 184.688 27.5067 184.608 27.36 184.448C27.2 184.288 27.12 184.068 27.12 183.788C27.12 183.508 27.2 183.295 27.36 183.148C27.5067 182.988 27.7333 182.908 28.04 182.908L29.68 182.908L29.38 183.128C28.62 182.848 28.0467 182.395 27.66 181.768C27.2733 181.128 27.08 180.402 27.08 179.588C27.08 178.802 27.22 178.155 27.5 177.648C27.78 177.142 28.2067 176.762 28.78 176.508C29.3533 176.255 30.08 176.128 30.96 176.128L36.2 176.128C36.5067 176.128 36.74 176.208 36.9 176.368C37.06 176.515 37.14 176.735 37.14 177.028C37.14 177.322 37.06 177.548 36.9 177.708C36.74 177.868 36.5067 177.948 36.2 177.948L31.06 177.948C30.1933 177.948 29.56 178.115 29.16 178.448C28.76 178.782 28.56 179.315 28.56 180.048C28.56 180.902 28.8267 181.588 29.36 182.108C29.88 182.615 30.5867 182.868 31.48 182.868L36.2 182.868C36.8267 182.868 37.14 183.175 37.14 183.788ZM37.18 169.763C37.18 170.55 37.0333 171.21 36.74 171.743C36.4467 172.263 36.0133 172.65 35.44 172.903C34.8667 173.156 34.1467 173.283 33.28 173.283L28.04 173.283C27.7333 173.283 27.5067 173.21 27.36 173.063C27.2 172.903 27.12 172.676 27.12 172.383C27.12 172.09 27.2 171.863 27.36 171.703C27.5067 171.543 27.7333 171.463 28.04 171.463L33.28 171.463C34.1067 171.463 34.72 171.296 35.12 170.963C35.5067 170.63 35.7 170.103 35.7 169.383C35.7 168.583 35.4333 167.936 34.9 167.443C34.3667 166.936 33.66 166.683 32.78 166.683L28.04 166.683C27.7333 166.683 27.5067 166.61 27.36 166.463C27.2 166.303 27.12 166.076 27.12 165.783C27.12 165.49 27.2 165.263 27.36 165.103C27.5067 164.943 27.7333 164.863 28.04 164.863L36.2 164.863C36.8267 164.863 37.14 165.156 37.14 165.743C37.14 166.036 37.06 166.263 36.9 166.423C36.74 166.57 36.5067 166.643 36.2 166.643L34.46 166.643L34.8 166.383C35.5733 166.65 36.1667 167.083 36.58 167.683C36.98 168.27 37.18 168.963 37.18 169.763ZM24.92 167.283C24.92 167.603 24.8333 167.85 24.66 168.023C24.4867 168.196 24.24 168.283 23.92 168.283C23.6 168.283 23.36 168.196 23.2 168.023C23.0267 167.85 22.94 167.603 22.94 167.283C22.94 166.963 23.0267 166.716 23.2 166.543C23.36 166.37 23.6 166.283 23.92 166.283C24.24 166.283 24.4867 166.37 24.66 166.543C24.8333 166.703 24.92 166.95 24.92 167.283ZM24.92 170.823C24.92 171.143 24.8333 171.396 24.66 171.583C24.4867 171.756 24.24 171.843 23.92 171.843C23.6 171.843 23.36 171.756 23.2 171.583C23.0267 171.396 22.94 171.143 22.94 170.823C22.94 170.503 23.0267 170.256 23.2 170.083C23.36 169.91 23.6 169.823 23.92 169.823C24.24 169.823 24.4867 169.91 24.66 170.083C24.8333 170.256 24.92 170.503 24.92 170.823ZM37.18 153.36C37.18 153.96 37.1133 154.566 36.98 155.18C36.8333 155.78 36.5867 156.346 36.24 156.88C36.1467 157.026 36.0333 157.133 35.9 157.2C35.7533 157.253 35.6133 157.273 35.48 157.26C35.3333 157.233 35.2067 157.173 35.1 157.08C34.9933 156.986 34.9333 156.873 34.92 156.74C34.8933 156.593 34.9267 156.44 35.02 156.28C35.3133 155.76 35.52 155.26 35.64 154.78C35.76 154.286 35.82 153.8 35.82 153.32C35.82 152.586 35.6867 152.033 35.42 151.66C35.1533 151.286 34.8 151.1 34.36 151.1C33.9867 151.1 33.7 151.226 33.5 151.48C33.2867 151.72 33.1267 152.1 33.02 152.62L32.64 154.48C32.4533 155.306 32.1467 155.933 31.72 156.36C31.28 156.773 30.72 156.98 30.04 156.98C29.44 156.98 28.92 156.82 28.48 156.5C28.0267 156.166 27.68 155.706 27.44 155.12C27.2 154.533 27.08 153.86 27.08 153.1C27.08 152.513 27.16 151.96 27.32 151.44C27.4667 150.906 27.6933 150.426 28 150C28.0933 149.84 28.2133 149.74 28.36 149.7C28.4933 149.646 28.6333 149.64 28.78 149.68C28.9133 149.706 29.0267 149.766 29.12 149.86C29.2133 149.953 29.2733 150.073 29.3 150.22C29.3133 150.366 29.2733 150.526 29.18 150.7C28.9133 151.086 28.7267 151.486 28.62 151.9C28.5 152.3 28.44 152.7 28.44 153.1C28.44 153.82 28.58 154.366 28.86 154.74C29.14 155.1 29.5067 155.28 29.96 155.28C30.3067 155.28 30.5933 155.173 30.82 154.96C31.0467 154.733 31.2133 154.38 31.32 153.9L31.7 152.04C31.8867 151.173 32.1867 150.52 32.6 150.08C33 149.64 33.5467 149.42 34.24 149.42C35.1467 149.42 35.8667 149.78 36.4 150.5C36.92 151.206 37.18 152.16 37.18 153.36ZM37.18 142.832C37.18 143.818 36.9733 144.672 36.56 145.392C36.1333 146.112 35.54 146.665 34.78 147.052C34.0067 147.438 33.1 147.632 32.06 147.632C31.2867 147.632 30.5933 147.525 29.98 147.312C29.3667 147.085 28.8467 146.765 28.42 146.352C27.98 145.938 27.6467 145.438 27.42 144.852C27.1933 144.252 27.08 143.578 27.08 142.832C27.08 142.365 27.1533 141.872 27.3 141.352C27.4467 140.832 27.6867 140.352 28.02 139.912C28.1267 139.765 28.2533 139.672 28.4 139.632C28.5333 139.592 28.6733 139.592 28.82 139.632C28.9667 139.658 29.0933 139.725 29.2 139.832C29.2933 139.925 29.3467 140.052 29.36 140.212C29.3733 140.358 29.3267 140.518 29.22 140.692C28.98 141.012 28.8067 141.352 28.7 141.712C28.5933 142.058 28.54 142.392 28.54 142.712C28.54 143.205 28.62 143.645 28.78 144.032C28.94 144.405 29.1733 144.725 29.48 144.992C29.7733 145.245 30.14 145.438 30.58 145.572C31.0067 145.705 31.5067 145.772 32.08 145.772C33.2133 145.772 34.1067 145.505 34.76 144.972C35.4 144.438 35.72 143.685 35.72 142.712C35.72 142.392 35.6733 142.058 35.58 141.712C35.4733 141.365 35.3 141.025 35.06 140.692C34.9533 140.518 34.9133 140.358 34.94 140.212C34.9533 140.065 35.0133 139.945 35.12 139.852C35.2133 139.745 35.3333 139.678 35.48 139.652C35.6133 139.625 35.7533 139.638 35.9 139.692C36.0467 139.732 36.1667 139.825 36.26 139.972C36.58 140.398 36.8133 140.865 36.96 141.372C37.1067 141.878 37.18 142.365 37.18 142.832ZM37.14 136.855C37.14 137.135 37.06 137.355 36.9 137.515C36.74 137.675 36.5067 137.755 36.2 137.755L23.68 137.755C23.3733 137.755 23.1467 137.675 23 137.515C22.84 137.355 22.76 137.135 22.76 136.855C22.76 136.562 22.84 136.335 23 136.175C23.1467 136.015 23.3733 135.935 23.68 135.935L29.38 135.935L29.38 136.195C28.62 135.915 28.0467 135.462 27.66 134.835C27.2733 134.195 27.08 133.468 27.08 132.655C27.08 131.868 27.2267 131.222 27.52 130.715C27.8 130.208 28.2267 129.828 28.8 129.575C29.3733 129.322 30.0933 129.195 30.96 129.195L36.2 129.195C36.5067 129.195 36.74 129.275 36.9 129.435C37.06 129.582 37.14 129.802 37.14 130.095C37.14 130.388 37.06 130.615 36.9 130.775C36.74 130.935 36.5067 131.015 36.2 131.015L31.06 131.015C30.1933 131.015 29.56 131.182 29.16 131.515C28.76 131.848 28.56 132.382 28.56 133.115C28.56 133.968 28.8267 134.655 29.36 135.175C29.88 135.682 30.5867 135.935 31.48 135.935L36.2 135.935C36.8267 135.935 37.14 136.242 37.14 136.855ZM37.18 123.25C37.18 124.25 36.8867 125.01 36.3 125.53C35.7 126.05 34.84 126.31 33.72 126.31L23.68 126.31C23.3733 126.31 23.1467 126.23 23 126.07C22.84 125.91 22.76 125.69 22.76 125.41C22.76 125.116 22.84 124.89 23 124.73C23.1467 124.57 23.3733 124.49 23.68 124.49L33.58 124.49C34.2733 124.49 34.7933 124.35 35.14 124.07C35.4733 123.776 35.64 123.363 35.64 122.83C35.64 122.71 35.64 122.603 35.64 122.51C35.6267 122.416 35.6133 122.323 35.6 122.23C35.5867 122.083 35.6267 121.976 35.72 121.91C35.8133 121.843 36 121.81 36.28 121.81C36.5333 121.81 36.7333 121.87 36.88 121.99C37.0133 122.096 37.1 122.276 37.14 122.53C37.1533 122.65 37.16 122.77 37.16 122.89C37.1733 123.01 37.18 123.13 37.18 123.25ZM37.1 119.394C37.1 119.674 37.0133 119.894 36.84 120.054C36.6667 120.214 36.4267 120.294 36.12 120.294L28.14 120.294C27.82 120.294 27.58 120.214 27.42 120.054C27.2467 119.894 27.16 119.674 27.16 119.394C27.16 119.101 27.2467 118.874 27.42 118.714C27.58 118.554 27.82 118.474 28.14 118.474L36.12 118.474C36.4267 118.474 36.6667 118.554 36.84 118.714C37.0133 118.861 37.1 119.087 37.1 119.394ZM25 119.394C25 119.754 24.9067 120.041 24.72 120.254C24.52 120.454 24.26 120.554 23.94 120.554C23.5933 120.554 23.3333 120.454 23.16 120.254C22.9733 120.041 22.88 119.754 22.88 119.394C22.88 119.007 22.9733 118.721 23.16 118.534C23.3333 118.334 23.5933 118.234 23.94 118.234C24.26 118.234 24.52 118.334 24.72 118.534C24.9067 118.721 25 119.007 25 119.394ZM37.18 111.048C37.18 112.101 36.98 113.008 36.58 113.768C36.1667 114.514 35.5867 115.094 34.84 115.508C34.08 115.921 33.1867 116.128 32.16 116.128C31.1467 116.128 30.26 115.928 29.5 115.528C28.74 115.114 28.1467 114.554 27.72 113.848C27.2933 113.128 27.08 112.308 27.08 111.388C27.08 110.734 27.1933 110.148 27.42 109.628C27.6333 109.094 27.9467 108.641 28.36 108.268C28.7733 107.894 29.28 107.614 29.88 107.428C30.4667 107.228 31.1333 107.128 31.88 107.128C32.0933 107.128 32.26 107.194 32.38 107.328C32.4867 107.448 32.54 107.628 32.54 107.868L32.54 114.708L31.38 114.708L31.38 108.328L31.66 108.668C30.9667 108.668 30.38 108.774 29.9 108.988C29.4067 109.188 29.0333 109.488 28.78 109.888C28.5267 110.274 28.4 110.761 28.4 111.348C28.4 111.988 28.5533 112.534 28.86 112.988C29.1533 113.441 29.5733 113.788 30.12 114.028C30.6533 114.268 31.2733 114.388 31.98 114.388L32.1 114.388C33.3 114.388 34.2067 114.101 34.82 113.528C35.4333 112.954 35.74 112.128 35.74 111.048C35.74 110.621 35.6867 110.188 35.58 109.748C35.4733 109.294 35.28 108.861 35 108.448C34.88 108.248 34.8267 108.068 34.84 107.908C34.84 107.734 34.8933 107.594 35 107.488C35.0933 107.381 35.2133 107.314 35.36 107.288C35.4933 107.261 35.64 107.281 35.8 107.348C35.96 107.414 36.1 107.541 36.22 107.728C36.5267 108.168 36.7667 108.694 36.94 109.308C37.1 109.908 37.18 110.488 37.18 111.048ZM37.18 98.1042C37.18 98.6776 37.1 99.2642 36.94 99.8642C36.78 100.451 36.54 100.978 36.22 101.444C36.1267 101.604 36.0067 101.711 35.86 101.764C35.7133 101.818 35.5667 101.831 35.42 101.804C35.2733 101.778 35.1467 101.718 35.04 101.624C34.9333 101.518 34.8733 101.391 34.86 101.244C34.8333 101.098 34.8733 100.938 34.98 100.764C35.26 100.324 35.46 99.8709 35.58 99.4042C35.7 98.9242 35.76 98.4842 35.76 98.0842C35.76 97.4709 35.6333 96.9909 35.38 96.6442C35.1133 96.2976 34.7533 96.1242 34.3 96.1242C33.9267 96.1242 33.6133 96.2776 33.36 96.5842C33.1067 96.8776 32.8667 97.4109 32.64 98.1842C32.3067 99.2509 31.9267 99.9976 31.5 100.424C31.0733 100.851 30.54 101.064 29.9 101.064C29.62 101.064 29.3533 101.024 29.1 100.944C28.8333 100.851 28.56 100.691 28.28 100.464C27.9867 100.238 27.6667 99.9309 27.32 99.5442C26.9733 99.1442 26.66 98.8642 26.38 98.7042C26.1 98.5442 25.8 98.4642 25.48 98.4642C25.0533 98.4642 24.72 98.6176 24.48 98.9242C24.24 99.2176 24.12 99.6442 24.12 100.204C24.12 101.124 24.3933 101.831 24.94 102.324C25.4867 102.804 26.26 103.044 27.26 103.044L36.2 103.044C36.5067 103.044 36.74 103.124 36.9 103.284C37.06 103.444 37.14 103.671 37.14 103.964C37.14 104.244 37.06 104.464 36.9 104.624C36.74 104.784 36.5067 104.864 36.2 104.864L27.5 104.864C25.98 104.864 24.8067 104.458 23.98 103.644C23.14 102.831 22.72 101.684 22.72 100.204C22.72 99.4709 22.8267 98.8442 23.04 98.3242C23.2533 97.8042 23.5533 97.4042 23.94 97.1242C24.3267 96.8442 24.7933 96.7042 25.34 96.7042C25.8333 96.7042 26.28 96.8176 26.68 97.0442C27.08 97.2709 27.52 97.6509 28 98.1842C28.2667 98.4909 28.5 98.7309 28.7 98.9042C28.8867 99.0776 29.06 99.1976 29.22 99.2642C29.3667 99.3176 29.5333 99.3442 29.72 99.3442C30.0533 99.3442 30.34 99.1976 30.58 98.9042C30.82 98.5976 31.06 98.0509 31.3 97.2642C31.62 96.2376 32.0133 95.5042 32.48 95.0642C32.9333 94.6242 33.5133 94.4042 34.22 94.4042C34.82 94.4042 35.34 94.5576 35.78 94.8642C36.22 95.1709 36.5667 95.6042 36.82 96.1642C37.06 96.7242 37.18 97.3709 37.18 98.1042ZM37.18 87.8837C37.18 88.9371 36.98 89.8437 36.58 90.6037C36.1667 91.3504 35.5867 91.9304 34.84 92.3437C34.08 92.7571 33.1867 92.9637 32.16 92.9637C31.1467 92.9637 30.26 92.7637 29.5 92.3637C28.74 91.9504 28.1467 91.3904 27.72 90.6837C27.2933 89.9637 27.08 89.1437 27.08 88.2237C27.08 87.5704 27.1933 86.9837 27.42 86.4637C27.6333 85.9304 27.9467 85.4771 28.36 85.1037C28.7733 84.7304 29.28 84.4504 29.88 84.2637C30.4667 84.0637 31.1333 83.9637 31.88 83.9637C32.0933 83.9637 32.26 84.0304 32.38 84.1637C32.4867 84.2837 32.54 84.4637 32.54 84.7037L32.54 91.5437L31.38 91.5437L31.38 85.1637L31.66 85.5037C30.9667 85.5037 30.38 85.6104 29.9 85.8237C29.4067 86.0237 29.0333 86.3237 28.78 86.7237C28.5267 87.1104 28.4 87.5971 28.4 88.1837C28.4 88.8237 28.5533 89.3704 28.86 89.8237C29.1533 90.2771 29.5733 90.6237 30.12 90.8637C30.6533 91.1037 31.2733 91.2237 31.98 91.2237L32.1 91.2237C33.3 91.2237 34.2067 90.9371 34.82 90.3637C35.4333 89.7904 35.74 88.9637 35.74 87.8837C35.74 87.4571 35.6867 87.0237 35.58 86.5837C35.4733 86.1304 35.28 85.6971 35 85.2837C34.88 85.0837 34.8267 84.9037 34.84 84.7437C34.84 84.5704 34.8933 84.4304 35 84.3237C35.0933 84.2171 35.2133 84.1504 35.36 84.1237C35.4933 84.0971 35.64 84.1171 35.8 84.1837C35.96 84.2504 36.1 84.3771 36.22 84.5637C36.5267 85.0037 36.7667 85.5304 36.94 86.1437C37.1 86.7437 37.18 87.3237 37.18 87.8837ZM37.14 80.8002C37.14 81.0802 37.06 81.3002 36.9 81.4602C36.74 81.6202 36.5067 81.7002 36.2 81.7002L28.04 81.7002C27.7333 81.7002 27.5067 81.6202 27.36 81.4602C27.2 81.3002 27.12 81.0802 27.12 80.8002C27.12 80.5202 27.2 80.3068 27.36 80.1602C27.5067 80.0002 27.7333 79.9202 28.04 79.9202L29.68 79.9202L29.38 80.1402C28.62 79.8602 28.0467 79.4068 27.66 78.7802C27.2733 78.1402 27.08 77.4135 27.08 76.6002C27.08 75.8135 27.22 75.1668 27.5 74.6602C27.78 74.1535 28.2067 73.7735 28.78 73.5202C29.3533 73.2668 30.08 73.1402 30.96 73.1402L36.2 73.1402C36.5067 73.1402 36.74 73.2202 36.9 73.3802C37.06 73.5268 37.14 73.7468 37.14 74.0402C37.14 74.3335 37.06 74.5602 36.9 74.7202C36.74 74.8802 36.5067 74.9602 36.2 74.9602L31.06 74.9602C30.1933 74.9602 29.56 75.1268 29.16 75.4602C28.76 75.7935 28.56 76.3268 28.56 77.0602C28.56 77.9135 28.8267 78.6002 29.36 79.1202C29.88 79.6268 30.5867 79.8802 31.48 79.8802L36.2 79.8802C36.8267 79.8802 37.14 80.1868 37.14 80.8002Z" fill="black"/>
</g>
<defs>
<filter id="filter0_d_1854_19320" x="-3" y="0" width="74" height="361" filterUnits="userSpaceOnUse" color-interpolation-filters="sRGB">
<feFlood flood-opacity="0" result="BackgroundImageFix"/>
<feColorMatrix in="SourceAlpha" type="matrix" values="0 0 0 0 0 0 0 0 0 0 0 0 0 0 0 0 0 0 127 0" result="hardAlpha"/>
<feOffset dx="4" dy="4"/>
<feGaussianBlur stdDeviation="3.5"/>
<feComposite in2="hardAlpha" operator="out"/>
<feColorMatrix type="matrix" values="0 0 0 0 0 0 0 0 0 0 0 0 0 0 0 0 0 0 0.2 0"/>
<feBlend mode="normal" in2="BackgroundImageFix" result="effect1_dropShadow_1854_19320"/>
<feBlend mode="normal" in="SourceGraphic" in2="effect1_dropShadow_1854_19320" result="shape"/>
</filter>
</defs>
</svg>
